<svg xmlns="http://www.w3.org/2000/svg" viewBox="0 0 1024 1024" width="1024" height="1024">
  <title>AlgoMinutes</title>
  <!-- Generated by brand/scripts/generate.swift from packages/tokens/tokens.json (brand.mark). Don't edit by hand. -->
  <style>
    .sheen { animation: sheen 3.6s cubic-bezier(.6,0,.2,1) infinite; }
    .dot, .ring { transform-box: fill-box; transform-origin: center; }
    .dot { animation: breathe 1.8s ease-in-out infinite; }
    .ring { animation: ring 1.8s ease-out infinite; }
    @keyframes sheen { 0% { transform: translateX(-700px); } 55%, 100% { transform: translateX(1100px); } }
    @keyframes breathe { 50% { transform: scale(1.08); } }
    @keyframes ring { 0% { transform: scale(1); opacity: .7; } 100% { transform: scale(2.1); opacity: 0; } }
    @media (prefers-reduced-motion: reduce) { .sheen, .dot, .ring { animation: none; } .sheen, .ring { opacity: 0; } }
  </style>
  <defs>
    <linearGradient id="bg" x1="0" y1="0" x2="1024" y2="1024" gradientUnits="userSpaceOnUse"><stop offset="0%" stop-color="#3715E0"/><stop offset="100%" stop-color="#6D00FF"/></linearGradient>
    <radialGradient id="glow0" cx="512" cy="450.6" r="634.9" gradientUnits="userSpaceOnUse"><stop offset="0%" stop-color="#9A6BFF" stop-opacity="0.50"/><stop offset="100%" stop-color="#9A6BFF" stop-opacity="0.00"/></radialGradient>
    <linearGradient id="foot" x1="0" y1="0" x2="0" y2="1024" gradientUnits="userSpaceOnUse"><stop offset="50%" stop-color="#12024F" stop-opacity="0.00"/><stop offset="100%" stop-color="#12024F" stop-opacity="0.30"/></linearGradient>
    <radialGradient id="light" cx="204.8" cy="20.5" r="819.2" gradientUnits="userSpaceOnUse"><stop offset="0%" stop-color="#FFFFFF" stop-opacity="0.24"/><stop offset="100%" stop-color="#FFFFFF" stop-opacity="0.00"/></radialGradient>
    <linearGradient id="mark" x1="0" y1="76" x2="0" y2="948" gradientUnits="userSpaceOnUse"><stop offset="0%" stop-color="#FFFFFF"/><stop offset="100%" stop-color="#ECE6FF"/></linearGradient>
    <filter id="soft" x="-20%" y="-20%" width="140%" height="160%"><feGaussianBlur stdDeviation="22"/></filter>
    <mask id="outside" maskUnits="userSpaceOnUse" x="0" y="0" width="1024" height="1024"><rect width="1024" height="1024" fill="#fff"/><path d="M666 379.4L666 347.9L810 347.9L810 916L666 916L666 852.6C615.4 892.4 551.5 916 482.1 916C423.1 916 368.1 899 321.9 869.3L338.1 884L166 948L236.4 791.9L245.9 800.6C205.9 749.8 182.1 685.7 182.1 616C182.1 450.4 316.4 316.1 482.1 316.1C551.5 316.1 615.4 339.7 666 379.4ZM366.1 616C366.1 686.7 423.3 744 494 744C564.6 744 621.9 686.7 621.9 616C621.9 545.4 564.6 488.1 494 488.1C423.3 488.1 366.1 545.4 366.1 616Z"/><circle cx="765.9" cy="168" r="92"/></mask>
    <clipPath id="tile"><rect width="1024" height="1024" rx="229"/></clipPath>
    <linearGradient id="sheen" x1="0" x2="1"><stop offset="0" stop-color="#FFFFFF" stop-opacity="0"/><stop offset="0.5" stop-color="#FFFFFF" stop-opacity="0.32"/><stop offset="1" stop-color="#FFFFFF" stop-opacity="0"/></linearGradient>
  </defs>
  <g clip-path="url(#tile)">
    <rect width="1024" height="1024" fill="url(#bg)"/>
    <rect width="1024" height="1024" fill="url(#glow0)"/>
    <rect width="1024" height="1024" fill="url(#foot)"/>
      <g class="sheen"><rect x="0" y="-200" width="300" height="1500" fill="url(#sheen)" transform="rotate(18 150 550)"/></g>
    <g mask="url(#outside)"><g filter="url(#soft)" transform="translate(0 18)" fill="#12024F" fill-opacity="0.5"><path d="M666 379.4L666 347.9L810 347.9L810 916L666 916L666 852.6C615.4 892.4 551.5 916 482.1 916C423.1 916 368.1 899 321.9 869.3L338.1 884L166 948L236.4 791.9L245.9 800.6C205.9 749.8 182.1 685.7 182.1 616C182.1 450.4 316.4 316.1 482.1 316.1C551.5 316.1 615.4 339.7 666 379.4ZM366.1 616C366.1 686.7 423.3 744 494 744C564.6 744 621.9 686.7 621.9 616C621.9 545.4 564.6 488.1 494 488.1C423.3 488.1 366.1 545.4 366.1 616Z"/><circle cx="765.9" cy="168" r="92"/></g></g>
    <path d="M666 379.4L666 347.9L810 347.9L810 916L666 916L666 852.6C615.4 892.4 551.5 916 482.1 916C423.1 916 368.1 899 321.9 869.3L338.1 884L166 948L236.4 791.9L245.9 800.6C205.9 749.8 182.1 685.7 182.1 616C182.1 450.4 316.4 316.1 482.1 316.1C551.5 316.1 615.4 339.7 666 379.4ZM366.1 616C366.1 686.7 423.3 744 494 744C564.6 744 621.9 686.7 621.9 616C621.9 545.4 564.6 488.1 494 488.1C423.3 488.1 366.1 545.4 366.1 616Z" fill="url(#mark)"/>
    <circle class="ring" cx="765.9" cy="168" r="92" fill="none" stroke="#FFFFFF" stroke-width="10"/>
    <circle class="dot" cx="765.9" cy="168" r="92" fill="url(#mark)"/>
    <rect width="1024" height="1024" fill="url(#light)"/>
  </g>
</svg>
